<svg id="korea_svg" xmlns="http://www.w3.org/2000/svg" viewBox="0 0 1494.8 2460.8">
  <g id="korea-outline">
    <polygon points="1032.4 2262 1026 2260.6 977.2 2307.3 999.8 2315.1 1000.5 2345.5 1017.5 2342.7 1023.2 2320 1033.1 2321.4 1038.7 2296.7 1028.8 2298.1 1032.4 2262" fill="#fff" stroke="#000" stroke-miterlimit="10" stroke-width="3"/>
    <polygon points="1494.8 193.8 1487.8 207.9 1443.9 193.8 1381.7 234.8 1373.1 246.2 1341.4 288.4 1248.8 411.5 1284.1 461 1268.5 601 1149.8 654.8 1125.7 711.3 1005.5 770.8 1019.6 794.8 910.8 841.5 886.7 835.5 865.5 830.2 825.9 875.4 735.4 929.2 756.6 956 746.6 1001 745.7 1005.2 745.3 1006.9 743 1008 740.9 1009 718.4 1019.7 715.3 1051.8 712.8 1077.6 800.4 1097.4 927.7 1203.5 934.9 1216.4 948.5 1240.7 1115.8 1539.9 1195 1681.5 1192.7 1802.9 1189.3 1984.2 1236 1961.5 1200.7 2127 1181.7 2150.5 1113 2235.9 1090.6 2253.7 1085.6 2236.7 1033.6 2236.7 1000.6 2206.7 1009.6 2247.7 976.6 2235.7 961.6 2303.7 874 2284 871.2 2258.5 763.7 2289.6 775 2320.7 810.3 2310.8 780.6 2373.1 766.5 2366 769.3 2336.3 746.7 2305.2 724.8 2312.8 714.2 2316.5 715.9 2319.5 748.1 2374.5 707.1 2422.6 666.1 2392.8 707.1 2363.2 690 2336.8 688.7 2334.9 682.2 2341.3 598.2 2424 579.8 2395.7 526.1 2459.1 524.7 2460.8 522.5 2459.1 506.3 2446.6 523.3 2397.1 468.1 2385.8 458.2 2343.3 533.2 2330.6 531.8 2310.8 479.4 2316.5 502 2242.9 472.3 2200.5 507.7 2127 538.7 2126 552.9 2125.6 554.9 2104.1 555.8 2094.5 548.9 2095.1 520 2097.8 510.5 2098.7 506.3 2086 550.1 2047.8 548.7 2012.4 592.5 1984.2 595.4 1964.3 545.9 1974.3 524.7 1941.7 507.7 1779.1 461 1814.4 418.6 1770.6 438.4 1729.6 473.8 1749.4 476.6 1698.5 513.3 1704.1 567.1 1712.6 589.7 1773.4 603.9 1719.7 571.3 1680.1 581.5 1649.8 588.3 1629.2 588.1 1628.3 582.7 1609.4 575.2 1601.4 557.3 1582.2 543.1 1566.9 552.9 1542.9 552.8 1542.8 521.8 1521.7 531.8 1482.1 527.7 1479.3 482.3 1448.2 425.7 1463.7 418.6 1490.6 400.2 1465.1 370.5 1460.9 338 1405.7 280 1404.3 322.4 1453.8 237.6 1504.7 236.2 1490.6 278.6 1455.2 261.6 1439.7 222 1463.7 216.4 1438.3 199.4 1453.8 161.2 1441.1 219.2 1391.6 82 1378.9 171.9 1258.5 186.7 1238.8 305.5 1247.3 312.5 1233.2 264.8 1216.4 188.1 1189.3 258.8 1031 231.9 1008.3 260.2 973 224.8 985.7 93.3 913.6 89.1 947.5 65 956 52.3 900.8 5.7 888.1 0 823.1 159.8 701.5 232.6 668.7 257.3 657.6 259.3 656.7 259.3 656.7 265.1 654.1 271.2 651.3 301.2 637.8 323.8 608.1 394.6 598.2 420 547.3 502 476.6 518.8 417.4 526.1 391.8 613.8 342.3 657.6 418.6 886.7 463.9 936.2 397.4 896.6 366.3 878.2 294.2 894.4 288.4 933.4 274.4 1077.6 282.8 1120.6 246.2 1125.7 241.8 1146.9 205.1 1193.6 158.4 1231.8 179.6 1271.4 155.6 1303.9 0 1400.1 26.9 1388.8 62.2 1424.1 107.5 1452.4 104.7 1494.8 193.8" fill="#fff" stroke="#000" stroke-miterlimit="10" stroke-width="3"/>
  </g>
  <g id="old-k">
    <g id="usa">
      <polygon points="1038.7 2296.7 1037.9 2300.2 1033.1 2321.4 1023.2 2320 1018.6 2338.3 1018 2340.8 1017.5 2342.7 1000.5 2345.5 1000.4 2340.8 1000.4 2338.3 999.8 2315.1 977.2 2307.3 984.7 2300.2 1026 2260.6 1032.4 2262 1028.8 2298.1 1038.7 2296.7" fill="#b22234"/>
      <path d="M1208.2,1975l-18.9,9.2.2-9.2,1.5-81.3.8-40.6v-2l.8-38.7,1.5-81.3.7-40.6v-9l-17.7-31.7-45.5-81.3-22.7-40.6-.9-1.6-21.8-39.1-33.2-59.3-6-10.6-6.3-11.3-.8-1.5H288.2l49.8,1.2.2.3,6.6,11.3,6.3,10.6,13.8,23.4,3,5.1,2.6,4.5,29.7,4.2,16,22.1,2.4,3.4.9-3.4,6.2-23.5,10.6-2.9,11-3,6.1-1.7,10.3-2.8,1.6-.5,5.1-1.4h.4l11.4-3.1,2.3,1.5.5,1.6h1.8L498,1459l29.7,20.3,4.1,2.8-1.3,5.1-3.2,12.8-2.1,8.1-.4,1.6-1.3,5.5-1.7,6.5,6.8,4.6,1.4.9.9.7h0l7,4.7,2,1.4,13,8.9-9.8,24,1.4,1.6,27.9,29.9,2,2.1,8.3,8.9,5.6,19.8-6.9,20.6-10.1,30.3.3.3,6.8,8.3,1.2,1.5.3.3,10.2,12.4h0l4.4,5.4,2.6,3.2,6.8,8.2-3,11.4-10.8,40.8h0l-.4,1.5v-.2L574,1731.1l-6.9-18.5-53.8-8.5-21.1-3.2-11.7-1.8h0l-3.9-.6v3.6h0l-1.6,29-1,18.3-32.7-18.3-2.7-1.5-.7,1.5-2.1,4.4-3.4,6.9h0l-7,14.6-4.1,8.4-2.5,5.2,22.9,23.6,5.5,5.8,12.1,12.4,1.2,1.3.7.7,2.7-2,.3-.2,4.3-3.3.7-.5,17-12.9,4.2-3.2,17.5-13.2,3.5,33.3,3.8,36.8h-1.3l1.4,1v.9h0l.2,1.5h0v.5l1.7,16.1.9,8.2h0l1.7,16.3,5,48,20.3,31.2.9,1.3,6.8-1.3,42.7-8.6-1.2,8.6-.4,2.1-1.3,9.2-43.8,28.2v3.2l1.3,32.2-9.7,8.5L506.3,2086l4.2,12.7,45.3-4.2-2.9,31.1-45.2,1.4-5.1,10.6-18.4,38.3-1.1,2.3-10.8,22.3,12.9,18.4,16.8,24-17.6,57.2-5,16.4,52.4-5.7,1.4,19.8-45.1,7.7-14.9,2.5-15,2.5,8.9,38.1,1,4.4,55.1,11.3-16.9,49.5,17.5,13.4h1.4l54.6-64.3,18.4,28.3,43.2-42.6,41.3-40.6,2.6-2.5h5.6l1.7,2.5,14.5,22.4-25.3,18.2-15.7,11.4,41,29.8,35.1-41.2,5.9-6.9-19.7-33.7-1.5-2.5h42.2l-.2,2.5-2.4,25.2,14.1,7.1,15.4-32.3,1.2-2.5,13.1-27.5-35.3,9.9-7.5-20.6-3.8-10.5,107.5-31.1L874,2284l71.9,16.1,15.7,3.6.8-3.6,14.2-64.4,33,12-6.3-28.8-2.7-12.2,13.4,12.2,19.6,17.8h52l5,17,22.4-17.8,13.7-17,32.7-40.7,1.9-2.3,30.8-38.3,8.6-10.6,15.1-70.7,8.6-40.7.5-2.1,8.2-38.5,2.9-13.5ZM321.6,1452.8l-1.3-1.5-3.4-4-16.6-19.4-9.2-10.6-9.7-11.3-1.2-1.5H204.1l-1.8,1.5-13.2,11.3-12.5,10.6-15.4,13.2,21.5,7.1,9.2,3.1,3.8,1.3h0l.7.2,3,1,1.1-1,1.6-1.5h.9l.4-1.2,10.7-9.7,2.3-2.2,2.9,13.1,2.7,12.4,12.8-7.7,26.8-16.3,17,15.5-38.4,32-4,3.4,1.4,14.1,15.1-9.1,4.6-2.7,9.4-5.7,39.5-23.7,6.7-4,6.3-3.8,3.2-1.9Z" fill="#b22234"/>
      <path d="M528.6,1526.3h579.6m86.7,162.4H578.4m-63.2,162.4h676.6m33.1,162.4H548.8m612.5,162.4H484.2m201.1,162.4H488.1m530.5,0h-18.2" fill="none" stroke="#fff" stroke-miterlimit="10" stroke-width="50"/>
      <path d="M288.2,1404.5l49.8,1.2.2.3,6.6,11.3,6.3,10.6,13.8,23.4,3,5.1,2.6,4.5,29.7,4.2,16,22.1,2.4,3.4.9-3.4,6.2-23.5,10.6-2.9,11-3,6.1-1.7,10.3-2.8,1.6-.5,5.1-1.4h.4l11.4-3.1,2.3,1.5.5,1.6h1.8L498,1459l29.7,20.3,4.1,2.8-1.3,5.1-3.2,12.8-2.1,8.1-.4,1.6-1.3,5.5-1.7,6.5,6.8,4.6,1.4.9.9.7h0l7,4.7,2,1.4,13,8.9-9.8,24,1.4,1.6,27.9,29.9,2,2.1,8.3,8.9,5.6,19.8-6.9,20.6-10.1,30.3.3.3,6.8,8.3,1.2,1.5.3.3,10.2,12.4h0l4.4,5.4,2.6,3.2,6.8,8.2-3,11.4-10.8,40.8h0l-.4,1.5v-.2L574,1731.1l-6.9-18.5-53.8-8.5-21.1-3.2-11.7-1.8h0l-3.9-.6v3.6h0l-1.6,29-1,18.3-32.7-18.3-2.7-1.5-.7,1.5-2.1,4.4-3.4,6.9h0l-7,14.6-4.1,8.4-2.5,5.2,22.9,23.6,5.5,5.8,12.1,12.4,1.2,1.3.7.7,2.7-2,.3-.2,4.3-3.3.7-.5,17-12.9,4.2-3.2,17.5-13.2,3.5,33.3,3.8,36.8h-1.3l1.4,1v.9h0l.2,1.5h0v.5l1.7,16.1.9,8.2h0l1.7,16.3,5,48,20.3,31.2h7.7l42.7-8.6-1.2,8.6H945.7V1404.5Zm33.4,48.3-1.3-1.5-3.4-4-16.6-19.4-9.2-10.6-9.7-11.3-1.2-1.5H204.1l-1.8,1.5-13.2,11.3-12.5,10.6-15.4,13.2,21.5,7.1,9.2,3.1,3.8,1.3h0l.7.2,3,1,1.1-1,1.6-1.5h.9l.4-1.2,10.7-9.7,2.3-2.2,2.9,13.1,2.7,12.4,12.8-7.7,26.8-16.3,17,15.5-38.4,32-4,3.4,1.4,14.1,15.1-9.1,4.6-2.7,9.4-5.7,39.5-23.7,6.7-4,6.3-3.8,3.2-1.9Z" fill="#3c3b6e"/>
      <g>
        <g id="s18">
          <g id="s9">
            <g id="s5">
              <g id="s4">
                <polygon points="202.1 1451.3 199.4 1453.8 191.9 1451.3 202.1 1451.3" fill="#fff"/>
                <polygon points="214.1 1440.4 203.4 1450.2 210.3 1428.9 214.1 1440.4" fill="#fff"/>
                <polygon points="241.2 1451.3 234.8 1456 222 1463.7 219.3 1451.3 241.2 1451.3" fill="#fff"/>
              </g>
            </g>
          </g>
          <g id="s9-2" data-name="s9">
            <g id="s5-2" data-name="s5">
              <g id="s4-2" data-name="s4">
                <polygon points="322.4 1453.8 319.2 1455.7 313.1 1451.3 320.3 1451.3 322.4 1453.8" fill="#fff"/>
                <polygon points="374.9 1451.3 367.9 1456.4 364.9 1451.3 374.9 1451.3" fill="#fff"/>
              </g>
            </g>
            <g id="s4-3" data-name="s4">
              <g>
                <polygon points="430 1771.8 421.1 1765.4 425.2 1757 430 1771.8" fill="#fff"/>
                <polygon points="441.8 1735.5 432.2 1742.4 435.6 1735.5 441.8 1735.5" fill="#fff"/>
              </g>
            </g>
          </g>
        </g>
        <g id="s18-2" data-name="s18">
          <g id="s9-3" data-name="s9">
            <g id="s5-3" data-name="s5">
              <g id="s4-4" data-name="s4">
                <polygon points="484.5 1449.7 482.3 1448.2 470.8 1451.3 470.4 1451.4 453.4 1456.1 446.8 1451.3 470.4 1451.3 477.7 1428.9 484.5 1449.7" fill="#fff"/>
                <polygon points="508.6 1451.3 498.1 1459 486.9 1451.3 508.6 1451.3" fill="#fff"/>
                <polygon points="496.8 1715 477.7 1701.1 476.4 1702.1 476.5 1700.2 476.6 1698.5 480.5 1699.1 480.5 1699.1 492.2 1700.9 496.8 1715" fill="#fff"/>
                <polygon points="490.2 1792.3 486.1 1795.5 469 1808.4 464 1812.2 465.9 1806.2 446.8 1792.3 470.4 1792.3 477.7 1769.9 485 1792.3 490.2 1792.3" fill="#fff"/>
              </g>
            </g>
            <g id="s4-5" data-name="s4">
              <polygon points="557.8 1526.3 563.7 1544.5 544.6 1530.6 539.9 1534 530.9 1527.9 531.4 1526.3 532.8 1522 523.5 1515.2 525.2 1508.1 537.3 1508.1 544.6 1485.7 551.9 1508.1 575.5 1508.1 556.4 1522 557.8 1526.3" fill="#fff"/>
              <path id="s" d="M544.6,1713.1l19.1,58.7-50-36.3h61.8l-50,36.3Z" fill="#fff"/>
              <polygon points="572.8 1851.1 556.4 1863 563.7 1885.5 544.6 1871.6 525.5 1885.5 532.8 1863 516.3 1851.1 515.1 1850.2 513.7 1849.2 537.3 1849.2 544.6 1826.7 551.9 1849.2 575.5 1849.2 572.8 1851.1" fill="#fff"/>
            </g>
          </g>
          <g id="s9-4" data-name="s9">
            <g id="s5-4" data-name="s5">
              <g id="s4-6" data-name="s4">
                <path id="s-2" data-name="s" d="M611.4,1428.9l19.1,58.7-50-36.3h61.8l-50,36.3Z" fill="#fff"/>
                <path id="s-3" data-name="s" d="M611.4,1542.5l19.1,58.8-50-36.3h61.8l-50,36.3Z" fill="#fff"/>
                <polygon points="623.2 1692.5 630.5 1715 611.4 1701.1 597.1 1711.5 594.5 1708.3 599.6 1692.5 594.4 1688.7 580.5 1678.7 604.1 1678.7 611.4 1656.2 618.7 1678.7 642.3 1678.7 628.5 1688.7 623.2 1692.5" fill="#fff"/>
                <path id="s-4" data-name="s" d="M611.4,1769.9l19.1,58.7-50-36.3h61.8l-50,36.3Z" fill="#fff"/>
              </g>
              <path id="s-5" data-name="s" d="M611.4,1883.6l19.1,58.7-50-36.3h61.8l-50,36.3Z" fill="#fff"/>
            </g>
            <g id="s4-7" data-name="s4">
              <path id="s-6" data-name="s" d="M678.3,1485.7l19.1,58.8-50-36.4h61.8l-50,36.4Z" fill="#fff"/>
              <path id="s-7" data-name="s" d="M678.3,1599.4l19.1,58.7-50-36.3h61.8l-50,36.3Z" fill="#fff"/>
              <path id="s-8" data-name="s" d="M678.3,1713.1l19.1,58.7-50-36.3h61.8l-50,36.3Z" fill="#fff"/>
              <path id="s-9" data-name="s" d="M678.3,1826.7l19.1,58.8-50-36.3h61.8l-50,36.3Z" fill="#fff"/>
            </g>
          </g>
        </g>
        <g id="s9-5" data-name="s9">
          <g id="s5-5" data-name="s5">
            <g id="s4-8" data-name="s4">
              <path id="s-10" data-name="s" d="M745.1,1428.9l19.1,58.7-50-36.3H776l-50,36.3Z" fill="#fff"/>
              <path id="s-11" data-name="s" d="M745.1,1542.5l19.1,58.8-50-36.3H776l-50,36.3Z" fill="#fff"/>
              <path id="s-12" data-name="s" d="M745.1,1656.2l19.1,58.8-50-36.3H776L726,1715Z" fill="#fff"/>
              <path id="s-13" data-name="s" d="M745.1,1769.9l19.1,58.7-50-36.3H776l-50,36.3Z" fill="#fff"/>
            </g>
            <path id="s-14" data-name="s" d="M745.1,1883.6l19.1,58.7-50-36.3H776l-50,36.3Z" fill="#fff"/>
          </g>
          <g id="s4-9" data-name="s4">
            <path id="s-15" data-name="s" d="M812,1485.7l19.1,58.8-50-36.4h61.8l-50,36.4Z" fill="#fff"/>
            <path id="s-16" data-name="s" d="M812,1599.4l19.1,58.7-50-36.3h61.8l-50,36.3Z" fill="#fff"/>
            <path id="s-17" data-name="s" d="M812,1713.1l19.1,58.7-50-36.3h61.8l-50,36.3Z" fill="#fff"/>
            <path id="s-18" data-name="s" d="M812,1826.7l19.1,58.8-50-36.3h61.8l-50,36.3Z" fill="#fff"/>
          </g>
        </g>
        <g id="s5-6" data-name="s5">
          <g id="s4-10" data-name="s4">
            <path id="s-19" data-name="s" d="M878.8,1428.9l19.1,58.7-50-36.3h61.8l-50,36.3Z" fill="#fff"/>
            <path id="s-20" data-name="s" d="M878.8,1542.5l19.1,58.8-50-36.3h61.8l-50,36.3Z" fill="#fff"/>
            <path id="s-21" data-name="s" d="M878.8,1656.2l19.1,58.8-50-36.3h61.8l-50,36.3Z" fill="#fff"/>
            <path id="s-22" data-name="s" d="M878.8,1769.9l19.1,58.7-50-36.3h61.8l-50,36.3Z" fill="#fff"/>
          </g>
          <path id="s-23" data-name="s" d="M878.8,1883.6l19.1,58.7-50-36.3h61.8l-50,36.3Z" fill="#fff"/>
        </g>
      </g>
    </g>
    <g id="usa-2" data-name="usa">
      <polygon points="1028.8 2298.1 1038.7 2296.7 1037.9 2300.2 1033.1 2321.4 1023.2 2320 1018.6 2338.3 1018 2340.8 1017.5 2342.7 1000.5 2345.5 1000.4 2340.8 1000.4 2338.3 999.8 2315.1 977.2 2307.3 984.7 2300.2 1026 2260.6 1032.4 2262 1028.8 2298.1" fill="#b22234"/>
      <polygon points="1236 1961.5 1233.1 1975 1224.9 2013.5 1224.4 2015.6 1215.8 2056.3 1200.7 2127 1192.1 2137.6 1161.3 2175.9 1159.4 2178.2 1126.7 2218.9 1113 2235.9 1090.6 2253.7 1085.6 2236.7 1033.6 2236.7 1014 2218.9 1003.3 2218.9 1009.6 2247.7 976.6 2235.7 962.4 2300.2 961.6 2303.7 945.9 2300.2 874 2284 871.2 2258.5 763.7 2289.6 767.5 2300.2 775 2320.7 810.3 2310.8 797.2 2338.3 796 2340.8 780.6 2373.1 766.5 2366 768.9 2340.8 769.1 2338.3 726.9 2338.3 728.4 2340.8 748.1 2374.5 742.2 2381.4 707.1 2422.6 666.1 2392.8 681.8 2381.4 707.1 2363.2 692.6 2340.8 690.9 2338.3 685.3 2338.3 682.7 2340.8 641.4 2381.4 598.2 2424 579.8 2395.7 525.3 2460.1 523.8 2460.1 506.3 2446.6 523.3 2397.1 468.1 2385.8 467.1 2381.4 458.2 2343.3 473.2 2340.8 488.1 2338.3 533.2 2330.6 531.8 2310.8 479.4 2316.5 484.4 2300.2 502 2242.9 485.2 2218.9 472.3 2200.5 483.1 2178.2 502.6 2137.6 507.7 2127 538.7 2126 552.9 2125.6 554.9 2104.1 555.8 2094.5 548.9 2095.1 520 2097.8 510.5 2098.7 506.3 2086 540.4 2056.3 550.1 2047.8 548.9 2015.6 548.7 2012.4 592.5 1984.2 593.9 1975 595.4 1964.3 545.9 1974.3 524.7 1941.7 519.6 1893.7 518 1877.4 518 1877.4 517.1 1869.2 515.4 1853.1 515.2 1853.1 515.4 1852.6 515.4 1852.6 515.2 1851.1 511.2 1812.4 507.7 1779.1 468.3 1808.9 463.7 1812.4 461 1814.4 460.3 1813.7 459.1 1812.4 447.1 1800 441.5 1794.2 418.6 1770.6 437.7 1731.1 438.4 1729.6 441.1 1731.1 473.8 1749.4 474.8 1731.1 476.6 1698.5 513.3 1704.1 567.1 1712.6 574 1731.1 589.6 1773.2 590.1 1771.8 590.1 1771.9 600.9 1731.1 603.9 1719.7 590.1 1702.9 590.1 1702.9 579.9 1690.5 579.6 1690.2 571.6 1680.4 571.3 1680.1 581.4 1649.8 581.5 1649.8 588.3 1629.2 588.1 1628.3 582.7 1609.4 575.2 1601.4 574.4 1600.5 572.4 1598.4 557.3 1582.2 544.5 1568.5 543.1 1566.9 552.9 1542.9 552.8 1542.8 537.9 1532.7 530.9 1527.9 530 1527.2 521.8 1521.7 524.8 1509.7 527.3 1500 530.5 1487.3 531.8 1482.1 527.7 1479.3 542.3 1475 555.1 1454.5 552.3 1429.1 573.5 1427.7 592.5 1407.2 592.8 1406 1040.9 1406 1047.3 1417.3 1053.2 1428 1086.4 1487.3 1108.2 1526.3 1109.1 1527.9 1115.8 1539.9 1131.8 1568.5 1177.3 1649.8 1195 1681.5 1194.9 1688.7 1194.8 1690.5 1194.1 1731.1 1192.9 1796.1 1192.5 1812.4 1191.8 1851.1 1191.8 1853.1 1191 1893.7 1189.5 1975 1208.3 1975 1236 1961.5" fill="#b22234"/>
      <g>
        <path d="M1018,2340.8h-17.6m-204.4,0H768.9m-40.5,0H692.6m-9.9,0H473.2m686.2-162.6H483.1m741.3-162.6H548.9m642.9-162.5H515.2m593.9-325.2H530.9m663.9,162.6H579.9" fill="none"/>
        <path d="M1115.8,1539.9l-6.7-12-.9-1.6-21.8-39.1H530.5l-3.2,12.8-2.5,9.7-3,12,8.2,5.5.9.7,7,4.7,14.9,10.2h.1l-9.8,24,1.4,1.6h587.3Zm61.5,109.9H581.4l-10.1,30.3.3.3,8,9.8.3.3,10.2,12.4h0l13.8,16.8-3,11.4h593.2l.7-40.6v-9Zm-610.2,62.8-53.8-8.5-36.7-5.6-1.8,32.6H574Zm-128.7,17-.7,1.5h3.4Zm72.8,82.8,4,38.7.2,1.5h0l-.2.5h.2l1.7,16.1.9,8.2h0l1.7,16.3H1191l.8-40.6v-2l.8-38.7Zm-52.1,0,1.2,1.3.7.7,2.7-2ZM593.8,1975l-1.3,9.2-43.8,28.2v3.2l1.3,32.2-9.7,8.5h675.4l8.6-40.7.5-2.1,8.2-38.5Zm-91.2,162.6-19.5,40.6-10.8,22.3,12.9,18.4h641.5l32.7-40.7,1.9-2.3,30.8-38.3ZM775,2320.7l-7.5-20.6H484.4l-5,16.4,52.4-5.7,1.4,19.8-45.1,7.7-14.9,2.5-15,2.5,8.9,38.1H641.4l41.3-40.6,2.6-2.5h5.6l1.7,2.5,14.5,22.4-25.3,18.2h60.4l5.9-6.9-19.7-33.7-1.5-2.5h42.2l-.2,2.5-2.4,25.2,14.1,7.1,15.4-32.3,1.2-2.5,13.1-27.5Zm170.9-20.6,15.7,3.6.8-3.6Zm38.8,0-7.5,7.2,22.6,7.8.6,25.7v4.7l17-2.9.5-1.8,5.2-20.8,9.9,1.4,4.8-21.3Z" fill="#fff"/>
      </g>
      <polygon points="924.7 1406 924.7 1975 593.9 1975 595.4 1964.3 545.9 1974.3 524.7 1941.7 519.6 1893.7 518 1877.4 518 1877.4 517.1 1869.2 515.4 1853.1 515.2 1853.1 515.4 1852.6 515.4 1852.6 515.2 1851.1 511.2 1812.4 507.7 1779.1 468.3 1808.9 463.7 1812.4 461 1814.4 460.3 1813.7 459.1 1812.4 447.1 1800 441.5 1794.2 418.6 1770.6 437.7 1731.1 438.4 1729.6 441.1 1731.1 473.8 1749.4 474.8 1731.1 476.6 1698.5 513.3 1704.1 567.1 1712.6 574 1731.1 589.6 1773.2 590.1 1771.8 590.1 1771.9 600.9 1731.1 603.9 1719.7 590.1 1702.9 590.1 1702.9 579.9 1690.5 579.6 1690.2 571.6 1680.4 571.3 1680.1 581.4 1649.8 581.5 1649.8 588.3 1629.2 588.1 1628.3 582.7 1609.4 575.2 1601.4 574.4 1600.5 572.4 1598.4 557.3 1582.2 544.5 1568.5 543.1 1566.9 552.9 1542.9 552.8 1542.8 537.9 1532.7 530.9 1527.9 530 1527.2 521.8 1521.7 524.8 1509.7 527.3 1500 530.5 1487.3 531.8 1482.1 527.7 1479.3 542.3 1475 555.1 1454.5 552.3 1429.1 573.5 1427.7 592.5 1407.2 592.8 1406 924.7 1406" fill="#3c3b6e"/>
      <g>
        <g id="s18-3" data-name="s18">
          <g id="s9-6" data-name="s9">
            <g id="s5-7" data-name="s5">
              <g id="s4-11" data-name="s4">
                <polygon points="468 1808.1 468.3 1808.9 463.7 1812.4 461 1814.4 460.3 1813.7 459.1 1812.4 447.1 1800 441.5 1794.2 448.9 1794.2 456.2 1771.8 463.5 1794.2 487.1 1794.2 468 1808.1" fill="#fff"/>
              </g>
            </g>
            <g id="s4-12" data-name="s4">
              <polygon points="536.4 1527.9 537.9 1532.7 530.9 1527.9 530 1527.2 521.8 1521.7 524.8 1509.7 527.3 1500 530.5 1509.7 554.1 1509.7 535 1523.6 536.4 1527.9" fill="#fff"/>
              <path id="s-24" data-name="s" d="M523.1,1714.9l19.2,58.8-50.1-36.4h61.9L504,1773.7Z" fill="#fff"/>
              <polygon points="551.4 1853.1 535 1865 542.3 1887.5 523.1 1873.6 518 1877.4 517.1 1869.2 515.4 1853.1 515.2 1853.1 515.4 1852.6 515.4 1852.6 515.2 1851.1 515.9 1851.1 523.1 1828.7 530.5 1851.1 554.1 1851.1 551.4 1853.1" fill="#fff"/>
            </g>
          </g>
          <g id="s9-7" data-name="s9">
            <g id="s5-8" data-name="s5">
              <g id="s4-13" data-name="s4">
                <path id="s-25" data-name="s" d="M590.1,1430.4l19.1,58.8-50-36.4H621l-50,36.4Z" fill="#fff"/>
                <polygon points="618.4 1568.5 601.9 1580.5 609.2 1603 590.1 1589.1 574.4 1600.5 572.4 1598.4 578.3 1580.5 561.8 1568.5 559.1 1566.6 582.8 1566.6 590.1 1544.2 597.4 1566.6 621 1566.6 618.4 1568.5" fill="#fff"/>
                <polygon points="601.9 1694.3 609.2 1716.8 590.1 1702.9 590.1 1702.9 579.9 1690.5 579.6 1690.2 571.6 1680.4 582.8 1680.4 590.1 1658 597.4 1680.4 621 1680.4 607.2 1690.5 601.9 1694.3" fill="#fff"/>
                <polygon points="603.3 1812.4 609.2 1830.6 590.1 1816.7 571 1830.6 576.9 1812.4 578.3 1808.1 559.1 1794.2 582.8 1794.2 589.6 1773.2 590.1 1771.8 590.1 1771.9 590.1 1771.9 597.4 1794.2 621 1794.2 601.9 1808.1 603.3 1812.4" fill="#fff"/>
              </g>
              <path id="s-26" data-name="s" d="M590.1,1885.6l19.1,58.8-50-36.4H621l-50,36.4Z" fill="#fff"/>
            </g>
            <g id="s4-14" data-name="s4">
              <path id="s-27" data-name="s" d="M657,1487.3l19.1,58.8-50-36.4h61.8l-50,36.4Z" fill="#fff"/>
              <path id="s-28" data-name="s" d="M657,1601.1l19.1,58.8-50-36.4h61.8l-50,36.4Z" fill="#fff"/>
              <path id="s-29" data-name="s" d="M657,1714.9l19.1,58.8-50-36.4h61.8l-50,36.4Z" fill="#fff"/>
              <path id="s-30" data-name="s" d="M657,1828.7l19.1,58.8-50-36.4h61.8l-50,36.4Z" fill="#fff"/>
            </g>
          </g>
        </g>
        <g id="s9-8" data-name="s9">
          <g id="s5-9" data-name="s5">
            <g id="s4-15" data-name="s4">
              <path id="s-31" data-name="s" d="M723.9,1430.4l19.1,58.8-50-36.4h61.9l-50.1,36.4Z" fill="#fff"/>
              <path id="s-32" data-name="s" d="M723.9,1544.2,743,1603l-50-36.4h61.9L704.8,1603Z" fill="#fff"/>
              <path id="s-33" data-name="s" d="M723.9,1658l19.1,58.8-50-36.4h61.9l-50.1,36.4Z" fill="#fff"/>
              <polygon points="735.7 1808.1 754.9 1794.2 731.2 1794.2 723.9 1771.8 716.6 1794.2 693 1794.2 712.1 1808.1 704.8 1830.6 723.9 1816.7 743 1830.6 735.7 1808.1" fill="#fff"/>
            </g>
            <polygon points="735.7 1921.9 754.9 1908 731.2 1908 723.9 1885.6 716.6 1908 693 1908 712.1 1921.9 704.8 1944.4 723.9 1930.5 743 1944.4 735.7 1921.9" fill="#fff"/>
          </g>
          <g id="s4-16" data-name="s4">
            <path id="s-34" data-name="s" d="M790.9,1487.3l19.1,58.8-50.1-36.4h61.9l-50.1,36.4Z" fill="#fff"/>
            <path id="s-35" data-name="s" d="M790.9,1601.1l19.1,58.8-50.1-36.4h61.9l-50.1,36.4Z" fill="#fff"/>
            <path id="s-36" data-name="s" d="M790.9,1714.9l19.1,58.8-50.1-36.4h61.9l-50.1,36.4Z" fill="#fff"/>
            <path id="s-37" data-name="s" d="M790.9,1828.7l19.1,58.8-50.1-36.4h61.9l-50.1,36.4Z" fill="#fff"/>
          </g>
        </g>
        <g id="s5-10" data-name="s5">
          <g id="s4-17" data-name="s4">
            <polygon points="869.6 1466.7 857.8 1475.3 838.7 1489.2 846 1466.7 850.5 1452.8 865.1 1452.8 869.6 1466.7" fill="#fff"/>
            <polygon points="826.9 1452.8 850.5 1452.8 846 1466.7 826.9 1452.8" fill="#fff"/>
            <polygon points="857.8 1430.4 865.1 1452.8 850.5 1452.8 857.8 1430.4" fill="#fff"/>
            <polygon points="869.6 1466.7 876.9 1489.2 857.8 1475.3 869.6 1466.7" fill="#fff"/>
            <polygon points="888.7 1452.8 869.6 1466.7 865.1 1452.8 888.7 1452.8" fill="#fff"/>
            <g>
              <polygon points="846 1580.5 838.7 1603 857.8 1589.1 876.9 1603 869.6 1580.5 888.7 1566.6 865.1 1566.6 857.8 1544.2 850.5 1566.6 826.9 1566.6 846 1580.5" fill="#fff"/>
              <polygon points="865.1 1680.4 857.8 1658 850.5 1680.4 826.9 1680.4 846 1694.3 838.7 1716.8 857.8 1702.9 876.9 1716.8 869.6 1694.3 888.7 1680.4 865.1 1680.4" fill="#fff"/>
            </g>
            <polygon points="869.6 1808.1 888.7 1794.2 865.1 1794.2 857.8 1771.8 850.5 1794.2 826.9 1794.2 846 1808.1 838.7 1830.6 857.8 1816.7 876.9 1830.6 869.6 1808.1" fill="#fff"/>
          </g>
          <polygon points="869.6 1921.9 888.7 1908 865.1 1908 857.8 1885.6 850.5 1908 826.9 1908 846 1921.9 838.7 1944.4 857.8 1930.5 876.9 1944.4 869.6 1921.9" fill="#fff"/>
        </g>
      </g>
    </g>
    <g id="sov">
      <polygon points="1494.8 193.8 1487.8 207.9 1443.9 193.8 1381.7 234.8 1248.8 411.5 1284.1 461 1268.5 601 1149.8 654.8 1125.7 711.3 1005.5 770.8 1019.6 794.8 910.8 841.5 865.5 830.2 825.9 875.4 735.4 929.2 756.6 956 745.3 1006.9 718.4 1019.7 712.8 1077.6 800.4 1097.4 927.7 1203.5 948.5 1240.7 1040.1 1404.5 1040.9 1406 1047.3 1417.3 344.8 1417.3 338.1 1406 338 1405.7 288.2 1404.5 280 1404.3 280.2 1404.5 281.4 1406 291.1 1417.3 189.1 1417.3 202.3 1406 204.1 1404.5 219.2 1391.6 82 1378.9 186.7 1238.8 264.1 1244.4 305.5 1247.3 312.5 1233.2 288.5 1224.7 188.1 1189.3 258.8 1031 231.9 1008.3 260.2 973 224.8 985.7 93.3 913.6 89.1 947.5 65 956 52.3 900.8 5.7 888.1 0 823.1 159.8 701.5 301.2 637.8 323.8 608.1 394.6 598.2 420 547.3 502 476.6 526.1 391.8 613.8 342.3 657.6 418.6 886.7 463.9 936.2 397.4 896.6 366.3 878.2 294.2 933.4 274.4 1077.6 282.8 1125.7 241.8 1146.9 205.1 1193.6 158.4 1231.8 179.6 1271.4 155.6 1303.9 0 1400.1 26.9 1388.8 62.2 1424.1 107.5 1452.4 104.7 1494.8 193.8" fill="#c00"/>
      <g id="sov-s">
        <path id="path11728" d="M617.4,644.3H526l-28.3-86.9-28.2,86.9H378.1L452,698l-28.2,86.9,73.9-53.7,74,53.7L543.4,698Zm-72.3,104-47.4-34.4-47.3,34.4,18.1-55.6-47.3-34.4h58.5l18-55.6,18.1,55.6h58.5L527,692.7Z" fill="gold"/>
        <g id="g2900">
          <path id="rect4165-6" d="M295.8,1012.5l62.6,62.9,59-58.5c89.8,96.1,184,188.7,273.1,285.1a34.4,34.4,0,1,0,48.8-48.4c-95.6-90-191.5-180.7-287.2-271l79.5-78.8L421,888.5Z" fill="gold"/>
          <path d="M709.5,1078.4c-1.4,43.7-15.2,81.9-38,111.3a159.3,159.3,0,0,1-47.7,41.5c-26.1,14.9-57,22.9-90.7,22.1-54-1.3-102.2-25.5-134.4-63.4a26.1,26.1,0,0,1-14.1,17.3l-1.2.7c-21,10.1-37.6,27.9-45.2,49.8-3.5,11-10.5,22.2-19.9,31.6-16.5,16.6-37.7,25.2-53.3,21.7a13,13,0,0,1-18.2-11.9,12.3,12.3,0,0,1,.7-4.2c-4.4-14.2,2.3-34,16.7-50.5l41.3,2.9,7-14.1-24-8.5a71.7,71.7,0,0,1,9-4.1l.6-.2a89.3,89.3,0,0,0,50.8-44.6,25.9,25.9,0,0,1,21.2-17.6,20.7,20.7,0,0,1,15.8-7.2,21,21,0,0,1,7.4,1.3l13.8-11.6a137.1,137.1,0,0,0,207.3-4.8,134.2,134.2,0,0,0,30.8-86.5c-.2-36.7-10.4-82.6-33.8-126.6S549.2,837.9,497.8,809c58.9,15.5,111,50.8,146.6,93.3C690.9,958,711.3,1025.8,709.5,1078.4Z" fill="gold"/>
        </g>
      </g>
    </g>
  </g>
  <g id="_38th" data-name="38th">
    <rect id="_38-p" data-name="38-p" x="48.6" y="1417.3" width="1397.6" height="10.67"/>
    <g id="_38-t" data-name="38-t">
      <path d="M1041.8,1378.1l6.3-.9c.7,3.6,1.9,6.2,3.7,7.8a9.1,9.1,0,0,0,6.4,2.4,10.6,10.6,0,0,0,10.6-10.8,9.7,9.7,0,0,0-10.1-10,17.1,17.1,0,0,0-4.5.7l.7-5.6h1.1a12.7,12.7,0,0,0,7.2-2.1,7.2,7.2,0,0,0,3.3-6.5,7.8,7.8,0,0,0-2.4-5.8,8.5,8.5,0,0,0-6.1-2.3,8.4,8.4,0,0,0-6.1,2.4c-1.7,1.5-2.7,3.8-3.2,6.9l-6.3-1.1a16.5,16.5,0,0,1,5.3-9.9,15.2,15.2,0,0,1,10.2-3.5,16.1,16.1,0,0,1,7.8,1.9,13.5,13.5,0,0,1,5.4,4.9,13.2,13.2,0,0,1,1.9,6.6,10.7,10.7,0,0,1-1.8,6.1,13,13,0,0,1-5.3,4.4,11.8,11.8,0,0,1,7.1,4.4,13,13,0,0,1,2.5,8.3,15,15,0,0,1-4.9,11.4,17.5,17.5,0,0,1-12.5,4.7,16,16,0,0,1-11.2-4A15.5,15.5,0,0,1,1041.8,1378.1Z"/>
      <path d="M1091.5,1363.7a11.1,11.1,0,0,1-5.8-4.1,10.3,10.3,0,0,1-1.9-6.4,12.3,12.3,0,0,1,4-9.4q4-3.9,10.8-3.9a15,15,0,0,1,10.8,4,12.4,12.4,0,0,1,4.1,9.5,10.5,10.5,0,0,1-1.8,6.2,11.7,11.7,0,0,1-5.7,4.1,14.7,14.7,0,0,1,7.2,5,14.3,14.3,0,0,1,2.5,8.3,14.9,14.9,0,0,1-4.7,11.1q-4.6,4.5-12.3,4.5t-12.3-4.5a15.3,15.3,0,0,1-4.7-11.3,12.6,12.6,0,0,1,9.8-13.1Zm-3.3,13.1a11.2,11.2,0,0,0,1.3,5.3,8.9,8.9,0,0,0,3.8,3.9,11.4,11.4,0,0,0,5.4,1.4,10.1,10.1,0,0,0,10.5-10.4,9.9,9.9,0,0,0-3.1-7.5,10.2,10.2,0,0,0-7.6-3,9.9,9.9,0,0,0-10.3,10.3Zm2-23.8a7.8,7.8,0,0,0,2.4,6,8.5,8.5,0,0,0,6.1,2.3,8.1,8.1,0,0,0,6-2.3,7.3,7.3,0,0,0,2.3-5.6,8.5,8.5,0,0,0-14.4-5.9A7.4,7.4,0,0,0,1090.2,1353Z"/>
      <path d="M1137.4,1386l.9,5.6a22.4,22.4,0,0,1-4.8.6,10.7,10.7,0,0,1-5.3-1.1,5.8,5.8,0,0,1-2.7-2.9c-.5-1.2-.8-3.6-.8-7.4v-21.5h-4.6v-4.9h4.6v-9.3l6.3-3.8v13.1h6.4v4.9H1131v21.8a8.7,8.7,0,0,0,.4,3.5,2.3,2.3,0,0,0,1,1.2,4.5,4.5,0,0,0,2.2.5Z"/>
      <path d="M1143.6,1391.7v-51.5h6.3v18.4a14.1,14.1,0,0,1,11.2-5.1,16.6,16.6,0,0,1,7.2,1.6,9.8,9.8,0,0,1,4.4,4.6,22.1,22.1,0,0,1,1.3,8.3v23.7h-6.4V1368c0-3.1-.6-5.4-2-6.9a7.8,7.8,0,0,0-5.8-2.1,10.8,10.8,0,0,0-5.3,1.4,8,8,0,0,0-3.5,4c-.8,1.6-1.1,3.9-1.1,6.9v20.4Z"/>
      <path d="M1204.4,1391.7v-51.5h19.5a52.1,52.1,0,0,1,7.8.4,16.8,16.8,0,0,1,6.4,2.5,11.8,11.8,0,0,1,4.1,4.9,16.8,16.8,0,0,1,1.6,7.1,15.8,15.8,0,0,1-4.2,11.1c-2.8,3-7.8,4.5-15.1,4.5h-13.3v21Zm6.8-27h13.4c4.4,0,7.5-.9,9.4-2.5a8.9,8.9,0,0,0,2.7-6.9,9.5,9.5,0,0,0-1.6-5.6,7.7,7.7,0,0,0-4.3-3,29.3,29.3,0,0,0-6.4-.5h-13.2Z"/>
      <path d="M1276,1387.1a22.1,22.1,0,0,1-6.8,4.2,19.6,19.6,0,0,1-6.9,1.2c-4.1,0-7.3-1-9.5-3a9.8,9.8,0,0,1-3.3-7.7,10.8,10.8,0,0,1,1.2-5,11.5,11.5,0,0,1,3.3-3.6,17.5,17.5,0,0,1,4.6-2.1,50.5,50.5,0,0,1,5.6-.9,60.4,60.4,0,0,0,11.3-2.2v-1.7q0-3.7-1.8-5.4t-7.2-2.1q-4.5,0-6.6,1.5c-1.4,1.1-2.4,2.9-3.1,5.6l-6.2-.9a14.5,14.5,0,0,1,2.8-6.4,11.8,11.8,0,0,1,5.6-3.8,26.5,26.5,0,0,1,8.4-1.3,23.9,23.9,0,0,1,7.8,1.1,10.6,10.6,0,0,1,4.4,2.9,10.1,10.1,0,0,1,2,4.3,37.3,37.3,0,0,1,.3,5.8v8.4c0,5.9.1,9.7.4,11.2a12.1,12.1,0,0,0,1.6,4.5h-6.6A13,13,0,0,1,1276,1387.1Zm-.5-14.1a46.9,46.9,0,0,1-10.4,2.3,23.3,23.3,0,0,0-5.5,1.3,5.8,5.8,0,0,0-2.5,2.1,5.4,5.4,0,0,0,1.1,7.2,8.1,8.1,0,0,0,5.6,1.7,13.9,13.9,0,0,0,6.5-1.6,9.9,9.9,0,0,0,4.2-4.4,16.5,16.5,0,0,0,1-6.3Z"/>
      <path d="M1291.6,1391.7v-37.3h5.7v5.6c1.5-2.6,2.8-4.4,4-5.2a6.9,6.9,0,0,1,4.1-1.3,12.2,12.2,0,0,1,6.5,2.1l-2.2,5.8a8.9,8.9,0,0,0-4.6-1.3,6.6,6.6,0,0,0-3.8,1.2,6.8,6.8,0,0,0-2.3,3.5,24.3,24.3,0,0,0-1.1,7.3v19.6Z"/>
      <path d="M1340,1387.1a22.9,22.9,0,0,1-6.7,4.2,20.2,20.2,0,0,1-7,1.2c-4.1,0-7.3-1-9.5-3a10.5,10.5,0,0,1-2-12.7,10.2,10.2,0,0,1,3.2-3.6,17.5,17.5,0,0,1,4.6-2.1,50.5,50.5,0,0,1,5.6-.9,60.4,60.4,0,0,0,11.3-2.2v-1.7q0-3.7-1.8-5.4t-7.2-2.1q-4.4,0-6.6,1.5c-1.4,1.1-2.4,2.9-3.1,5.6l-6.2-.9a15.7,15.7,0,0,1,2.8-6.4,12.4,12.4,0,0,1,5.6-3.8,26.5,26.5,0,0,1,8.4-1.3,23.9,23.9,0,0,1,7.8,1.1,9.9,9.9,0,0,1,4.4,2.9,10.1,10.1,0,0,1,2,4.3,37.3,37.3,0,0,1,.3,5.8v8.4c0,5.9.1,9.7.4,11.2a14.2,14.2,0,0,0,1.6,4.5h-6.6A13,13,0,0,1,1340,1387.1Zm-.5-14.1a45.8,45.8,0,0,1-10.3,2.3,24.4,24.4,0,0,0-5.6,1.3,6.4,6.4,0,0,0-2.5,2.1,6.1,6.1,0,0,0-.8,3,5.2,5.2,0,0,0,1.9,4.2,8.3,8.3,0,0,0,5.6,1.7,13.9,13.9,0,0,0,6.5-1.6,9.9,9.9,0,0,0,4.2-4.4,14.7,14.7,0,0,0,1-6.3Z"/>
      <path d="M1355.6,1391.7v-51.5h6.3v51.5Z"/>
      <path d="M1371.6,1391.7v-51.5h6.3v51.5Z"/>
      <path d="M1413.3,1379.7l6.5.8a16.3,16.3,0,0,1-5.7,8.9c-2.8,2.1-6.4,3.1-10.7,3.1s-9.8-1.6-13-5-4.8-8.1-4.8-14.2,1.6-11.1,4.8-14.6a16.5,16.5,0,0,1,12.6-5.2,16.1,16.1,0,0,1,12.3,5.1c3.1,3.4,4.7,8.2,4.7,14.4v1.6h-27.9c.3,4.1,1.4,7.3,3.5,9.5a10.6,10.6,0,0,0,7.8,3.2,9.6,9.6,0,0,0,5.9-1.8A12.3,12.3,0,0,0,1413.3,1379.7Zm-20.8-10.3h20.8c-.3-3.1-1.1-5.5-2.4-7a9.5,9.5,0,0,0-7.8-3.7,10,10,0,0,0-7.3,2.9A11.6,11.6,0,0,0,1392.5,1369.4Z"/>
      <path d="M1427.6,1391.7v-51.5h6.3v51.5Z"/>
    </g>
  </g>
</svg>
