<svg id="korea_svg" xmlns="http://www.w3.org/2000/svg" viewBox="0 0 1494.8 2460.8">
  <g id="korea-outline">
    <polygon points="1032.4 2262 1026 2260.6 977.2 2307.3 999.8 2315.1 1000.5 2345.5 1017.5 2342.7 1023.2 2320 1033.1 2321.4 1038.7 2296.7 1028.8 2298.1 1032.4 2262" fill="#fff" stroke="#000" stroke-miterlimit="10" stroke-width="3"/>
    <polygon points="1452.4 104.7 1424.1 107.5 1388.8 62.2 1400.1 26.9 1303.9 0 1271.4 155.6 1231.8 179.6 1193.6 158.4 1146.9 205.1 1125.7 241.8 1120.6 246.2 1077.6 282.8 933.4 274.4 894.4 288.4 878.2 294.2 896.6 366.3 936.2 397.4 886.7 463.9 657.6 418.6 613.8 342.3 526.1 391.8 518.8 417.4 502 476.6 420 547.3 394.6 598.2 323.8 608.1 301.2 637.8 271.2 651.3 265.1 654.1 259.3 656.7 259.3 656.7 257.3 657.6 232.6 668.7 159.8 701.5 0 823.1 5.7 888.1 52.3 900.8 65 956 89.1 947.5 93.3 913.6 224.8 985.7 260.2 973 231.9 1008.3 258.8 1031 188.1 1189.3 264.8 1216.4 312.5 1233.2 305.5 1247.3 186.7 1238.8 171.9 1258.5 82 1378.9 219.2 1391.6 161.2 1441.1 199.4 1453.8 216.4 1438.3 222 1463.7 261.6 1439.7 278.6 1455.2 236.2 1490.6 237.6 1504.7 322.4 1453.8 280 1404.3 338 1405.7 370.5 1460.9 400.2 1465.1 418.6 1490.6 425.7 1463.7 482.3 1448.2 527.7 1479.3 531.8 1482.1 521.8 1521.7 552.8 1542.8 552.9 1542.9 543.1 1566.9 557.3 1582.2 575.2 1601.4 582.7 1609.4 588.1 1628.3 588.3 1629.2 581.5 1649.8 571.3 1680.1 603.9 1719.7 589.7 1773.4 567.1 1712.6 513.3 1704.1 476.6 1698.5 473.8 1749.4 438.4 1729.6 418.6 1770.6 461 1814.4 507.7 1779.1 524.7 1941.7 545.9 1974.3 595.4 1964.3 592.5 1984.2 548.7 2012.4 550.1 2047.8 506.3 2086 510.5 2098.7 520 2097.8 548.9 2095.1 555.8 2094.5 554.9 2104.1 552.9 2125.6 538.7 2126 507.7 2127 472.3 2200.5 502 2242.9 479.4 2316.5 531.8 2310.8 533.2 2330.6 458.2 2343.3 468.1 2385.8 523.3 2397.1 506.3 2446.6 522.5 2459.1 524.7 2460.8 526.1 2459.1 579.8 2395.7 598.2 2424 682.2 2341.3 688.7 2334.9 690 2336.8 707.1 2363.2 666.1 2392.8 707.1 2422.6 748.1 2374.5 715.9 2319.5 714.2 2316.5 724.8 2312.8 746.7 2305.2 769.3 2336.3 766.5 2366 780.6 2373.1 810.3 2310.8 775 2320.7 763.7 2289.6 871.2 2258.5 874 2284 961.6 2303.7 976.6 2235.7 1009.6 2247.7 1000.6 2206.7 1033.6 2236.7 1085.6 2236.7 1090.6 2253.7 1113 2235.9 1181.7 2150.5 1200.7 2127 1236 1961.5 1189.3 1984.2 1192.7 1802.9 1195 1681.5 1115.8 1539.9 948.5 1240.7 934.9 1216.4 927.7 1203.5 800.4 1097.4 712.8 1077.6 715.3 1051.8 718.4 1019.7 740.9 1009 743 1008 745.3 1006.9 745.7 1005.2 746.6 1001 756.6 956 735.4 929.2 825.9 875.4 865.5 830.2 886.7 835.5 910.8 841.5 1019.6 794.8 1005.5 770.8 1125.7 711.3 1149.8 654.8 1268.5 601 1284.1 461 1248.8 411.5 1341.4 288.4 1373.1 246.2 1381.7 234.8 1443.9 193.8 1487.8 207.9 1494.8 193.8 1452.4 104.7" fill="#fff" stroke="#000" stroke-miterlimit="10" stroke-width="3"/>
  </g>
  <g id="new-k">
    <g id="sk">
      <polygon points="1028.8 2298.1 1038.7 2296.7 1033.1 2321.4 1023.2 2320 1017.5 2342.7 1000.5 2345.5 999.8 2315.1 977.2 2307.3 1026 2260.6 1032.4 2262 1028.8 2298.1" fill="#fff" stroke="#000" stroke-miterlimit="10" stroke-width="3"/>
      <polygon points="1236 1961.5 1200.7 2127 1181.7 2150.5 1113 2235.9 1090.6 2253.7 1085.6 2236.7 1033.6 2236.7 1000.6 2206.7 1009.6 2247.7 976.6 2235.7 961.6 2303.7 874 2284 871.2 2258.5 763.7 2289.6 775 2320.7 810.3 2310.8 780.6 2373.1 766.5 2366 769.3 2336.3 746.7 2305.2 724.8 2312.8 725.2 2313.4 715.9 2319.5 748.1 2374.5 707.1 2422.6 666.1 2392.8 707.1 2363.2 690 2336.8 682.6 2341.8 682.2 2341.3 598.2 2424 579.8 2395.7 526.1 2459.1 522.5 2459.1 506.3 2446.6 523.3 2397.1 468.1 2385.8 458.2 2343.3 533.2 2330.6 531.8 2310.8 479.4 2316.5 502 2242.9 472.3 2200.5 507.7 2127 538.7 2126 552.9 2125.6 554.9 2104.1 548.9 2095.1 520 2097.8 510.5 2098.7 506.3 2086 550.1 2047.8 548.7 2012.4 592.5 1984.2 595.4 1964.3 545.9 1974.3 524.7 1941.7 507.7 1779.1 461 1814.4 418.6 1770.6 438.4 1729.6 473.8 1749.4 476.6 1698.5 513.3 1704.1 567.1 1712.6 589.7 1773.4 603.9 1719.7 571.3 1680.1 581.5 1649.8 576.1 1646.2 588.1 1628.3 582.7 1609.4 575.2 1601.4 557.3 1582.2 543.1 1566.9 552.9 1542.9 552.8 1542.8 521.8 1521.7 531.8 1482.1 527.7 1479.3 542.3 1475 555.1 1454.5 552.3 1429.1 573.5 1427.7 592.5 1407.2 595.4 1391.6 618 1375.3 615.9 1361.9 660.4 1328.7 718.4 1320.2 745.3 1332.2 760.1 1323.7 810.3 1320.9 824.5 1330.8 838.6 1323 875.4 1328.7 895.2 1322.3 935.5 1278.5 937.6 1246.6 948.5 1240.7 1115.8 1539.9 1195 1681.5 1192.7 1802.9 1189.3 1984.2 1236 1961.5" fill="#fff" stroke="#000" stroke-miterlimit="10" stroke-width="3"/>
      <g>
        <g id="b2">
          <g>
            <path id="b" d="M831.6,1447.5,661.3,1703h0m106.4-298.1L597.4,1660.4m106.5-298.1L557.3,1582.2" fill="none"/>
            <path d="M703.9,1362.3l-21.3-14.2L552.8,1542.8h.1l-9.8,24,14.2,15.3,17.9,19.2,150-224.9Zm63.8,42.6-21.2-14.2L588.1,1628.3l-12,17.9,5.4,3.6,15.9,10.6,21.3,14.2L789,1419.1Zm63.9,42.6-21.3-14.2L640,1688.8l21.3,14.2h0l21.3,14.2,170.3-255.5Z"/>
          </g>
        </g>
        <path d="M1236,1961.5,1200.7,2127l-19,23.5a305.7,305.7,0,0,1-201-50.1c-140-93.3-178.7-281.7-87.4-422.5l2.2-3.3a306.4,306.4,0,0,1,220.3-134.7l79.2,141.6-2.3,121.4-3.4,181.3Z" fill="#cd2e3a"/>
        <path d="M895.5,1674.6l-2.2,3.3Z" fill="#0047a0"/>
        <path d="M1236,1961.5,1200.7,2127l-19,23.5a305.7,305.7,0,0,1-201-50.1c-140-93.3-178.7-281.7-87.4-422.5-44.2,70.2-24.7,163.3,44.8,209.6s165.9,28,212.9-42.6a153,153,0,0,1,41.7-42l-3.4,181.3Z" fill="#0047a0"/>
      </g>
      <g>
        <g id="b2-2" data-name="b2">
          <g>
            <path id="b-2" data-name="b" d="M831.6,2242.4,661.3,1986.9m-63.9,42.6,78.1,117.1,7.1,10.6,7.1,10.7,78,117.1M533.5,2072.1l15.4,23,6,9,149,223.5" fill="none"/>
            <path d="M682.6,1972.7l-21.3,14.2L640,2001.1l170.3,255.5,21.3-14.2,21.3-14.2Zm28.4,181-7.1-10.7-7.1-10.6-78.1-117.1-21.3,14.2-21.3,14.2,78.1,117.1,7.1,10.6,7.1,10.7,78.1,117.1,21.2-14.2,21.3-14.2Zm13.8,159.1-170-254.9-21.3,14.2-21.3,14.1,7.8,11.6,28.9-2.7,6,9-2,21.5-14.2.4,143.5,215.2.4.6,7.4-5,13.9-9.2,12-8.1,9.3-6.1Z"/>
          </g>
        </g>
        <g>
          <path d="M714.5,2135.9l-10.6,7.1-21.3,14.2-21.3,14.2-10.7,7.1" fill="none"/>
          <path d="M714.5,2135.9l-7.1-10.6-10.6,7.1-21.3,14.2-21.3,14.2-10.7,7.1,7.1,10.6,7.1,10.7,10.7-7.1,21.3-14.2,21.3-14.2,10.6-7.1Z" fill="#fff"/>
        </g>
      </g>
    </g>
    <g id="nk">
      <polygon points="1494.8 193.8 1487.8 207.9 1443.9 193.8 1381.7 234.8 1373.1 246.2 1341.4 288.4 1248.8 411.5 1284.1 461 1268.5 601 1149.8 654.8 1125.7 711.3 1005.5 770.8 1019.6 794.8 910.8 841.5 886.7 835.5 865.5 830.2 825.9 875.4 735.4 929.2 756.6 956 746.6 1001 745.7 1005.2 745.3 1006.9 743 1008 740.9 1009 718.4 1019.7 715.3 1051.8 712.8 1077.6 800.4 1097.4 927.7 1203.5 934.9 1216.4 948.5 1240.7 937.6 1246.6 936.8 1258.5 935.5 1278.5 895.2 1322.3 875.4 1328.7 838.6 1323 824.5 1330.8 810.3 1320.9 760.1 1323.7 745.3 1332.2 718.4 1320.2 660.4 1328.7 615.9 1361.9 618 1375.3 595.4 1391.6 592.5 1407.2 573.5 1427.7 552.3 1429.1 555.1 1454.5 542.3 1475 527.7 1479.3 482.3 1448.2 425.7 1463.7 418.6 1490.6 400.2 1465.1 370.5 1460.9 338 1405.7 280 1404.3 322.4 1453.8 237.6 1504.7 236.2 1490.6 278.6 1455.2 261.6 1439.7 222 1463.7 216.4 1438.3 199.4 1453.8 161.2 1441.1 219.2 1391.6 82 1378.9 171.9 1258.5 186.7 1238.8 305.5 1247.3 312.5 1233.2 264.8 1216.4 188.1 1189.3 258.8 1031 231.9 1008.3 260.2 973 224.8 985.7 93.3 913.6 89.1 947.5 65 956 52.3 900.8 5.7 888.1 0 823.1 159.8 701.5 232.6 668.7 257.3 657.6 259.3 656.7 259.3 656.7 265.1 654.1 271.2 651.3 301.2 637.8 323.8 608.1 394.6 598.2 420 547.3 502 476.6 518.8 417.4 526.1 391.8 613.8 342.3 657.6 418.6 886.7 463.9 936.2 397.4 896.6 366.3 878.2 294.2 894.4 288.4 933.4 274.4 1077.6 282.8 1120.6 246.2 1125.7 241.8 1146.9 205.1 1193.6 158.4 1231.8 179.6 1271.4 155.6 1303.9 0 1400.1 26.9 1388.8 62.2 1424.1 107.5 1452.4 104.7 1494.8 193.8" fill="#024fa2"/>
      <polygon points="1341.4 288.4 1248.8 411.5 1284.1 461 1268.5 601 1149.8 654.8 1125.7 711.3 1005.5 770.8 1019.6 794.8 910.8 841.5 886.7 835.5 865.5 830.2 825.9 875.4 735.4 929.2 756.6 956 746.6 1001 745.7 1005.2 745.3 1006.9 743 1008 740.9 1009 718.4 1019.7 715.3 1051.8 712.8 1077.6 800.4 1097.4 927.7 1203.5 934.9 1216.4 948.5 1240.7 937.6 1246.6 936.8 1258.5 171.9 1258.5 186.7 1238.8 305.5 1247.3 312.5 1233.2 264.8 1216.4 188.1 1189.3 258.8 1031 231.9 1008.3 260.2 973 224.8 985.7 93.3 913.6 89.1 947.5 65 956 52.3 900.8 5.7 888.1 0 823.1 159.8 701.5 232.6 668.7 257.3 657.6 259.3 656.7 259.3 656.7 265.1 654.1 271.2 651.3 301.2 637.8 323.8 608.1 394.6 598.2 420 547.3 502 476.6 518.8 417.4 526.1 391.8 613.8 342.3 657.6 418.6 886.7 463.9 936.2 397.4 896.6 366.3 878.2 294.2 894.4 288.4 933.4 274.4 1077.6 282.8 1120.6 246.2 1373.1 246.2 1341.4 288.4" fill="#fff"/>
      <polygon points="1248.8 411.5 1284.1 461 1268.5 601 1149.8 654.8 1125.7 711.3 1005.5 770.8 1019.6 794.8 910.8 841.5 886.7 835.5 865.5 830.2 825.9 875.4 735.4 929.2 756.6 956 746.6 1001 745.7 1005.2 745.3 1006.9 743 1008 740.9 1009 718.4 1019.7 715.3 1051.8 712.8 1077.6 800.4 1097.4 927.7 1203.5 934.9 1216.4 264.8 1216.4 188.1 1189.3 258.8 1031 231.9 1008.3 260.2 973 224.8 985.7 93.3 913.6 89.1 947.5 65 956 52.3 900.8 5.7 888.1 0 823.1 159.8 701.5 232.6 668.7 257.3 657.6 259.3 656.7 259.3 656.7 265.1 654.1 271.2 651.3 301.2 637.8 323.8 608.1 394.6 598.2 420 547.3 502 476.6 518.8 417.4 526.1 391.8 613.8 342.3 657.6 418.6 886.7 463.9 936.2 397.4 896.6 366.3 878.2 294.2 894.4 288.4 1341.4 288.4 1248.8 411.5" fill="#ed1c27"/>
      <path d="M897,752.4a335.4,335.4,0,0,1-10.3,83.1l-21.2-5.3-39.6,45.2-90.5,53.8L756.6,956l-10,45-.9,4.2-.4,1.7L743,1008l-2.1,1-22.5,10.7-3.1,32.1a335.9,335.9,0,0,1-155.7,38c-186.4,0-337.5-151.1-337.5-337.4a339.1,339.1,0,0,1,10.5-83.7l24.7-11.1,2-.9h0l5.8-2.6,6.1-2.8,30-13.5,22.6-29.7,70.8-9.9L420,547.3l82-70.7,16.8-59.3a343.8,343.8,0,0,1,40.8-2.4C746,414.9,897,566,897,752.4Z" fill="#fff"/>
      <g id="star">
        <g id="cone">
          <polygon id="triangle" points="559.6 425.5 458.6 736.4 614 786.9 559.6 425.5" fill="#ed1c27"/>
          <g id="use12">
            <polygon id="triangle-2" data-name="triangle" points="559.6 425.5 660.6 736.4 505.1 786.9 559.6 425.5" fill="#ed1c27"/>
          </g>
        </g>
        <g id="use14">
          <g id="cone-2" data-name="cone">
            <polygon id="triangle-3" data-name="triangle" points="870.5 651.3 543.6 651.3 543.6 814.8 870.5 651.3" fill="#ed1c27"/>
            <g id="use12-2" data-name="use12">
              <polygon id="triangle-4" data-name="triangle" points="870.5 651.3 606 843.5 509.9 711.3 870.5 651.3" fill="#ed1c27"/>
            </g>
          </g>
        </g>
        <g id="use16">
          <g id="cone-3" data-name="cone">
            <polygon points="609.2 711.3 603.8 718.8 601.5 721.9 599.8 724.2 585.5 744 579.4 752.4 575.6 757.6 569.5 766 565.7 771.2 559.6 779.6 545.1 799.5 543.6 801.6 542 803.9 513.1 843.5 487.3 824.7 472.7 814.1 440.8 791 257.3 657.6 259.3 656.7 259.3 656.7 265.1 654.1 474 688.8 518.8 696.2 532.7 698.5 541.3 700 543.6 700.3 559.6 703 559.6 703 573.9 705.4 575.6 705.7 591.6 708.3 602.5 710.1 609.2 711.3" fill="#ed1c27"/>
            <g id="use12-3" data-name="use12">
              <polygon points="575.6 651.3 575.6 814.8 569.5 811.7 559.6 806.8 543.6 798.8 530.6 792.3 516.1 785 514 784 506.2 780.1 493.6 773.8 453 753.5 259.3 656.7 265.1 654.1 271.2 651.3 575.6 651.3" fill="#ed1c27"/>
            </g>
          </g>
        </g>
        <g id="use18">
          <g id="cone-4" data-name="cone">
            <polygon points="746.6 1001 745.7 1005.2 745.3 1006.9 743 1008 591.4 854.1 559.6 821.7 549.7 811.7 543.6 805.5 542 803.9 530.6 792.3 520.4 781.9 519.2 780.7 507.8 769.2 500.1 761.3 495.3 756.4 504.1 753.6 507.8 752.4 510.5 751.5 533.7 744 543.6 740.7 549.7 738.8 559.6 735.5 565.7 733.5 575.6 730.3 599 722.7 601.5 721.9 604.1 721.1 650.7 705.9 660.6 736.4 666.2 753.5 678.3 791 746.6 1001" fill="#ed1c27"/>
            <g id="use12-4" data-name="use12">
              <polygon points="745.7 1005.2 745.3 1006.9 743 1008 740.9 1009 559.6 877.2 527.7 854.1 513.1 843.5 487.3 824.7 516.1 785 517.7 782.8 517.7 782.8 519.2 780.7 533.7 760.8 539.8 752.4 543.6 747.2 549.7 738.8 553.5 733.5 559.6 725.1 573.9 705.4 575.6 703.1 577.9 700 583.3 692.5 586.5 698.5 591.6 708.3 599 722.7 599.8 724.2 606.5 737.1 606.5 737.1 614 751.5 615.1 753.6 619.1 761.3 625.6 773.8 646.5 814.1 745.7 1005.2" fill="#ed1c27"/>
            </g>
          </g>
        </g>
        <g id="use20">
          <g id="cone-5" data-name="cone">
            <polygon id="triangle-5" data-name="triangle" points="367.4 1016.8 631.9 824.7 535.8 692.4 367.4 1016.8" fill="#ed1c27"/>
            <g id="use12-5" data-name="use12">
              <polygon id="triangle-6" data-name="triangle" points="367.4 1016.8 468.4 705.9 623.9 756.4 367.4 1016.8" fill="#ed1c27"/>
            </g>
          </g>
        </g>
      </g>
    </g>
  </g>
  <g id="dmz">
    <path id="dmz-l" d="M947.3,1238.5l-12.1,6.6-2.1,32.3-39.3,42.7-18.6,6-37-5.7-13.6,7.4-13.5-9.5-51.7,2.9-14.2,8.2-26.4-11.8-59.4,8.7-46.2,34.5,2.1,13.4-22.2,16-2.9,15.8-17.9,19.2-22.8,1.5,3,27.3-11.8,18.9-15.7,4.5,5.3,3.7,13.7-3.9,13.7-22.1-2.7-23.7,19.6-1.3,20.2-21.8,2.9-15.3,23-16.6-2.1-13.4,42.8-32,56.6-8.2,27.4,12.2,15.4-8.8,48.9-2.8,14.6,10.3,14.8-8.1,36.5,5.6,21-6.7,41.3-45,2.1-31.3,9.7-5.3-2.4-4.4Z" fill="#373737" stroke="#000" stroke-miterlimit="10" stroke-width="12"/>
    <g id="dmz-t">
      <path d="M979.5,1226.4v-51.5h17.7a43.3,43.3,0,0,1,9.2.7,17.5,17.5,0,0,1,7.6,3.7,21.5,21.5,0,0,1,6.1,8.8,39.1,39.1,0,0,1,.6,22.7,26.1,26.1,0,0,1-3.5,7.5,19,19,0,0,1-4.7,4.7,17.8,17.8,0,0,1-6.1,2.5,35.2,35.2,0,0,1-8.3.9Zm6.8-6.1h11a27.9,27.9,0,0,0,8-.9,10.4,10.4,0,0,0,4.6-2.7,16.5,16.5,0,0,0,3.8-6.5,31.5,31.5,0,0,0,1.4-9.9c0-5.4-.9-9.6-2.7-12.5a13.3,13.3,0,0,0-6.5-5.8c-1.8-.7-4.7-1-8.8-1H986.3Z"/>
      <path d="M1031.3,1226.4v-51.5h10.2l12.2,36.5c1.1,3.4,2,5.9,2.5,7.6l2.7-8.3,12.4-35.8h9.1v51.5h-6.5v-43.1l-15,43.1h-6.2l-14.9-43.9v43.9Z"/>
      <path d="M1087.3,1226.4v-6.3l26.4-33a70.2,70.2,0,0,1,5.4-6.1h-28.8v-6.1h36.9v6.1l-28.9,35.7-3.1,3.6h32.9v6.1Z"/>
    </g>
  </g>
</svg>
